<mxfile host="app.diagrams.net" modified="2023-10-07T04:11:07.636Z" agent="Mozilla/5.0 (Macintosh; Intel Mac OS X 10_15_7) AppleWebKit/537.36 (KHTML, like Gecko) Chrome/116.0.0.0 Safari/537.36" etag="09NZRgyHzx5kBjOBdk6X" version="22.0.0" type="github">
  <diagram id="zzds6Kp185NoCfkkMVd4" name="Page-1">
    <mxGraphModel dx="886" dy="1239" grid="0" gridSize="10" guides="1" tooltips="1" connect="1" arrows="1" fold="1" page="1" pageScale="1" pageWidth="800" pageHeight="275" background="#EFF1F3" math="0" shadow="0">
      <root>
        <mxCell id="0" />
        <mxCell id="1" parent="0" />
        <mxCell id="G3217BQzLfLmHTe0aymr-13" value="&lt;font style=&quot;font-size: 19px;&quot;&gt;begin flag&lt;br style=&quot;font-size: 19px;&quot;&gt;&lt;/font&gt;" style="rounded=1;whiteSpace=wrap;html=1;labelBackgroundColor=none;fontColor=#333333;strokeColor=none;fillColor=#67AB9F;fontSize=19;" parent="1" vertex="1">
          <mxGeometry x="100" y="366" width="120" height="60" as="geometry" />
        </mxCell>
        <mxCell id="G3217BQzLfLmHTe0aymr-14" value="消息长度" style="rounded=1;whiteSpace=wrap;html=1;labelBackgroundColor=none;fontColor=#333333;strokeColor=none;fillColor=#FDD276;fontSize=19;" parent="1" vertex="1">
          <mxGeometry x="460" y="366" width="120" height="60" as="geometry" />
        </mxCell>
        <mxCell id="G3217BQzLfLmHTe0aymr-15" value="扩展位" style="rounded=1;whiteSpace=wrap;html=1;labelBackgroundColor=none;fontColor=#333333;strokeColor=none;fillColor=#67AB9F;fontSize=19;" parent="1" vertex="1">
          <mxGeometry x="220" y="366" width="120" height="60" as="geometry" />
        </mxCell>
        <mxCell id="G3217BQzLfLmHTe0aymr-16" value="协议号" style="rounded=1;whiteSpace=wrap;html=1;labelBackgroundColor=none;fontColor=#333333;strokeColor=none;fillColor=#67AB9F;fontSize=19;" parent="1" vertex="1">
          <mxGeometry x="340" y="366" width="120" height="60" as="geometry" />
        </mxCell>
        <mxCell id="5CvRzEFQMS9sR2cLQKQ0-1" value="&lt;font style=&quot;font-size: 19px;&quot;&gt;2 byte&lt;/font&gt;" style="text;html=1;strokeColor=none;fillColor=none;align=center;verticalAlign=middle;whiteSpace=wrap;rounded=0;fontSize=19;" vertex="1" parent="1">
          <mxGeometry x="127" y="429" width="60" height="30" as="geometry" />
        </mxCell>
        <mxCell id="5CvRzEFQMS9sR2cLQKQ0-2" value="&lt;font style=&quot;font-size: 19px;&quot;&gt;1 byte&lt;/font&gt;" style="text;html=1;strokeColor=none;fillColor=none;align=center;verticalAlign=middle;whiteSpace=wrap;rounded=0;fontSize=19;" vertex="1" parent="1">
          <mxGeometry x="250" y="429" width="60" height="30" as="geometry" />
        </mxCell>
        <mxCell id="5CvRzEFQMS9sR2cLQKQ0-3" value="&lt;font style=&quot;font-size: 19px;&quot;&gt;1 byte&lt;/font&gt;" style="text;html=1;strokeColor=none;fillColor=none;align=center;verticalAlign=middle;whiteSpace=wrap;rounded=0;fontSize=19;" vertex="1" parent="1">
          <mxGeometry x="370" y="429" width="60" height="30" as="geometry" />
        </mxCell>
        <mxCell id="5CvRzEFQMS9sR2cLQKQ0-4" value="&lt;font style=&quot;font-size: 19px;&quot;&gt;4 byte&lt;/font&gt;" style="text;html=1;strokeColor=none;fillColor=none;align=center;verticalAlign=middle;whiteSpace=wrap;rounded=0;fontSize=19;" vertex="1" parent="1">
          <mxGeometry x="490" y="429" width="60" height="30" as="geometry" />
        </mxCell>
        <mxCell id="5CvRzEFQMS9sR2cLQKQ0-5" value="消息体" style="rounded=1;whiteSpace=wrap;html=1;labelBackgroundColor=none;fontColor=#333333;strokeColor=none;fillColor=#F19C99;fontSize=19;" vertex="1" parent="1">
          <mxGeometry x="580" y="366" width="120" height="60" as="geometry" />
        </mxCell>
        <mxCell id="5CvRzEFQMS9sR2cLQKQ0-6" value="&lt;span style=&quot;font-size: 19px;&quot;&gt;不固定长度&lt;/span&gt;" style="text;html=1;strokeColor=none;fillColor=none;align=center;verticalAlign=middle;whiteSpace=wrap;rounded=0;fontSize=19;" vertex="1" parent="1">
          <mxGeometry x="590.5" y="429" width="99" height="30" as="geometry" />
        </mxCell>
      </root>
    </mxGraphModel>
  </diagram>
</mxfile>
